<svg viewBox="0 0 568 59" xmlns="http://www.w3.org/2000/svg"><title></title><g fill="none" fill-rule="evenodd"><path d="M297.34 45.153c-1.553 0-2.494-.53-2.964-1.673L283.23 15.218h3.302l10.415 26.41c.054.156.215.455.392.455.176 0 .34-.304.386-.444l10.42-26.423h3.3l-11.143 28.26c-.48 1.16-1.392 1.675-2.965 1.675m-97.675-.002c-8.42 0-15.27-6.85-15.27-15.27s6.85-15.27 15.27-15.27c5.365 0 10.24 2.737 13.04 7.323l.123.2-21.08 14.213-1.72-2.546 18.39-12.402c-2.295-2.365-5.468-3.717-8.753-3.717-6.727 0-12.2 5.475-12.2 12.2 0 6.73 5.473 12.2 12.2 12.2 6.517 0 11.87-5.096 12.184-11.602l.01-.23h3.075l-.01.253c-.33 8.216-7.03 14.65-15.26 14.65m128.52 0c-8.42 0-15.27-6.85-15.27-15.27s6.85-15.27 15.27-15.27c5.365 0 10.242 2.737 13.042 7.323l.122.2-21.08 14.213-1.72-2.546 18.39-12.402c-2.295-2.365-5.47-3.717-8.754-3.717-6.727 0-12.2 5.475-12.2 12.2 0 6.73 5.473 12.2 12.2 12.2 6.518 0 11.87-5.096 12.185-11.602l.01-.23h3.075l-.01.253c-.328 8.216-7.03 14.65-15.26 14.65m-94.94-27.47c-6.727 0-12.2 5.474-12.2 12.2 0 6.728 5.473 12.2 12.2 12.2 6.727 0 12.2-5.472 12.2-12.2 0-6.726-5.473-12.2-12.2-12.2m0 27.47c-8.42 0-15.27-6.85-15.27-15.27s6.85-15.27 15.27-15.27c4.813 0 9.317 2.26 12.2 6.087v-5.48h3.07v29.327h-3.07v-5.48c-2.883 3.826-7.387 6.087-12.2 6.087M162.477 42.542c-2.488 1.678-5.45 2.61-8.54 2.61-8.42 0-15.27-6.85-15.27-15.27s6.85-15.27 15.27-15.27c3.01 0 5.896.883 8.343 2.48l-2.387 2.144c-1.762-.99-3.794-1.554-5.956-1.554-6.727 0-12.2 5.472-12.2 12.2 0 6.726 5.473 12.2 12.2 12.2 2.16 0 4.192-.566 5.955-1.557l2.585 2.017zm101.263 2.003c-5.49 0-8.64-3.105-8.64-8.52V7.31h3.072v7.91h9.95v3.07h-9.95v17.736c0 3.717 1.77 5.45 5.568 5.45h4.382v3.07h-4.382zm12.73-32.6c-1.3 0-2.32-1.017-2.32-2.317s1.02-2.32 2.32-2.32c1.3 0 2.317 1.02 2.317 2.32 0 1.3-1.018 2.318-2.318 2.318M274.934 44.545V15.218l3.07.004v29.323h-3.07zm-106.114 0l-.002-29.327 3.072.004V19c2.155-2.38 5.146-3.78 8.123-3.78h2.92v3.07h-2.92c-3.278 0-6.064 2.334-7.122 4.64-.01.027-1 2.06-1 3.386v18.23h-3.07zm316.49 0V26.72c0-5.322-3.59-9.038-8.732-9.038-5.142 0-8.734 3.716-8.734 9.037v17.824h-3.07V26.72c0-7.017 4.965-12.11 11.804-12.11 6.838 0 11.802 5.093 11.802 12.11v17.825h-3.07zm59.28 0v-3.07h13.165c4.265 0 6.427-1.462 6.427-4.343 0-4.23-4.395-5.238-9.047-6.305-5.216-1.197-10.606-2.432-10.606-8.256 0-4.327 3.17-7.35 7.712-7.35h13.226v3.07H552.42c-2.143 0-4.45 1.32-4.45 4.22 0 3.52 4.08 4.427 8.4 5.386 5.277 1.17 11.254 2.5 11.254 8.878 0 5.084-3.598 7.772-10.408 7.772H544.59zm-35.466.605c-8.42 0-15.27-6.85-15.27-15.27s6.85-15.27 15.27-15.27c5.365 0 10.24 2.737 13.042 7.323l.122.2-21.082 14.213-1.717-2.546 18.386-12.402c-2.294-2.365-5.468-3.717-8.753-3.717-6.727 0-12.2 5.475-12.2 12.2 0 6.73 5.473 12.2 12.2 12.2 6.518 0 11.87-5.096 12.185-11.602l.01-.23h3.074l-.01.253c-.328 8.216-7.03 14.65-15.26 14.65M407.37 17.68c-6.728 0-12.2 5.474-12.2 12.2 0 6.728 5.472 12.2 12.2 12.2 6.728 0 12.2-5.472 12.2-12.2 0-6.726-5.472-12.2-12.2-12.2m0 27.47c-8.42 0-15.27-6.85-15.27-15.27s6.85-15.27 15.27-15.27c4.813 0 9.318 2.26 12.2 6.087v-5.48h3.07v29.327h-3.07v-5.48c-2.882 3.826-7.387 6.087-12.2 6.087M455.64 44.545c-5.49 0-8.64-3.105-8.64-8.52V7.31h3.072v7.91h9.95v3.07h-9.95v17.736c0 3.717 1.77 5.45 5.57 5.45h4.38v3.07h-4.38zm-80.662-2.462c-6.4 0-11.227-5.245-11.227-12.2 0-6.955 4.83-12.2 11.23-12.2s11.226 5.245 11.226 12.2c0 6.955-4.827 12.2-11.227 12.2m0-27.472c-4.656 0-8.65 2.15-11.228 5.61v-5.607h-3.07v43.683h3.07v-18.75c2.667 3.575 6.716 5.608 11.228 5.608 8.152 0 14.298-6.564 14.298-15.27 0-8.707-6.146-15.272-14.298-15.272" fill="#414042"/><path d="M429.23 44.545l-.002-29.327 3.07.004V19c2.158-2.38 5.15-3.78 8.125-3.78h2.92v3.07h-2.92c-3.278 0-6.065 2.334-7.122 4.64-.01.027-1 2.06-1 3.386v18.23h-3.07zm99.788 0V15.218l3.07.004V19c2.155-2.38 5.147-3.78 8.123-3.78h2.923v3.07h-2.92c-3.28 0-6.065 2.334-7.123 4.64-.013.027-1.003 2.06-1.003 3.386v18.23h-3.07z" fill="#414042"/><path d="M.696 50.2v-4.05h5.54c4.375 0 8.79-2.55 8.79-8.245V.98h4.048v36.927c0 8.445-6.655 12.292-12.84 12.292H.697zm37.112-4.56c-7.122 0-12.292-5.297-12.292-12.595V14.73h4.048v18.315c0 5.033 3.39 8.548 8.244 8.548 4.854 0 8.244-3.515 8.244-8.548V14.73H50.1v18.315c0 7.298-5.17 12.596-12.292 12.596" fill="#F15A4F"/><path d="M69.138 18.17c-6.122 0-10.74 5.035-10.74 11.712 0 6.678 4.618 11.712 10.74 11.712 6.123 0 10.74-5.034 10.74-11.712 0-6.677-4.617-11.712-10.74-11.712zm10.74 27.47v-4.73c-2.73 3.023-6.573 4.732-10.74 4.732-8.43 0-14.786-6.776-14.786-15.76s6.357-15.76 14.786-15.76c4.165 0 8.007 1.71 10.74 4.735V.982h4.046v44.66l-4.047-.003zm24.302 0c-8.69 0-15.76-7.07-15.76-15.76s7.07-15.76 15.76-15.76c5.537 0 10.568 2.827 13.458 7.558l.365.598-20.687 13.948-2.264-3.356 17.112-11.54c-2.16-2.014-5.038-3.16-7.984-3.16-6.458 0-11.71 5.255-11.71 11.712 0 6.458 5.252 11.712 11.71 11.712 6.256 0 11.394-4.893 11.696-11.14l.034-.696h4.047l-.03.762c-.34 8.48-7.256 15.12-15.747 15.12" fill="#F15A4F"/></g></svg>